<svg xmlns="http://www.w3.org/2000/svg" viewBox="0 0 800 240" width="100%" height="100%">
  <defs>
    <style>
      @import url('https://fonts.googleapis.com/css2?family=Plus+Jakarta+Sans:wght@800&amp;display=swap');
      .brand-text { font-family: 'Plus Jakarta Sans', -apple-system, BlinkMacSystemFont, 'Segoe UI', Roboto, sans-serif; font-weight: 800; font-size: 72px; }
      .dark-text { fill: #111111; }
      .lime-text { fill: #BCEB00; }
    </style>
  </defs>

  <!-- Fond Blanc Pur -->
  <rect width="800" height="240" fill="#FFFFFF"/>

  <!-- Icône Vert Citron Arrondie (Squircle) -->
  <g transform="translate(40, 35)">
    <rect width="170" height="170" rx="45" fill="#D4FF00"/>
    
    <!-- Microphone Noir -->
    <g fill="#111111" transform="translate(24, 14) scale(0.98)">
      <!-- Tête du micro -->
      <rect x="40" y="20" width="50" height="80" rx="25" />
      
      <!-- Lignes découpées -->
      <rect x="35" y="35" width="60" height="5" fill="#D4FF00" />
      <rect x="35" y="50" width="60" height="5" fill="#D4FF00" />
      <rect x="35" y="65" width="60" height="5" fill="#D4FF00" />
      <rect x="35" y="80" width="60" height="5" fill="#D4FF00" />

      <!-- Support en U -->
      <path d="M 25 60 v 25 a 40 40 0 0 0 80 0 v -25 h -8 v 25 a 32 32 0 0 1 -64 0 v -25 z" />
      
      <!-- Pied du support -->
      <rect x="61" y="125" width="8" height="20" />
      
      <!-- Base du pied -->
      <rect x="40" y="140" width="50" height="8" rx="3" />
    </g>
  </g>

  <!-- Texte : AfriVoice AI (Aligné horizontalement) -->
  <text x="240" y="142" class="brand-text">
    <tspan class="dark-text">AfriVoice </tspan>
    <tspan class="lime-text">AI</tspan>
  </text>
</svg>
